<?xml version="1.0" encoding="UTF-8"?>
<svg id="Layer_1" xmlns="http://www.w3.org/2000/svg" version="1.1" viewBox="0 0 128 128">
  <!-- Generator: Adobe Illustrator 29.1.0, SVG Export Plug-In . SVG Version: 2.1.0 Build 142)  -->
  <defs>
    <style>
      .st0 {
        fill: #3398f2;
      }

      .st1 {
        fill: #ffc91d;
      }

      .st2 {
        fill: #f43131;
      }
    </style>
  </defs>
  <path d="M87.4,64c3.8,0,6.9,1.3,9.2,3.8,2.3,2.5,3.5,6.5,3.5,11.8s-1.1,9.2-3.4,11.9c-2.3,2.7-5.2,4-8.7,4s-5.8-1.1-8.1-3.2c-.7-.6-1.3-1.4-1.8-2.2v-1.3h-.8c-.8-1.6-1.4-3.5-1.7-5.7l-25.4,2.8c.3,1,.6,2,1,3h-12.3c2.3-2.3,4.3-4.1,6-5.5,1.7-1.4,5.1-3.8,10.1-7.3,3.4-2.4,6.4-4.7,9-7l10.9,1.6c2-2.3,3.9-3.8,5.5-4.7,2.3-1.2,4.6-1.8,7-1.8M87.4,63c-2.6,0-5.1.6-7.5,1.9-1.7.9-3.5,2.4-5.5,4.5l-10.3-1.5h-.5c0,0-.3.2-.3.2-2.5,2.2-5.5,4.6-8.9,6.9-5.1,3.5-8.5,6-10.2,7.4-1.7,1.4-3.8,3.3-6.1,5.5l-1.7,1.7h16.1l-.5-1.3c-.2-.6-.4-1.2-.6-1.8l23.3-2.5c.4,1.9.9,3.6,1.7,5.1l.3.6h.4v.6l.2.2c.6.9,1.3,1.7,2,2.4,2.4,2.3,5.4,3.4,8.8,3.4s6.9-1.5,9.4-4.3c2.4-2.8,3.7-7,3.7-12.5s-1.2-9.8-3.7-12.5c-2.5-2.7-5.8-4.1-9.9-4.1h0Z"/>
  <g>
    <path class="st0" d="M2.2,109.7v-.6c.9-7.5,3.6-14.6,8-21.2,4.4-6.6,12.7-14.4,24.7-23.3,7.3-5.4,12-9.6,14-12.3,2-2.7,3-5.4,3-7.8s-1-4.9-2.9-6.7c-1.9-1.9-4.4-2.8-7.3-2.8s-5.6,1-7.5,2.9c-1.9,1.9-3.3,5.4-4,10.4v.5c0,0-26.2-2.1-26.2-2.1v-.5c1.1-7.1,2.9-12.7,5.6-16.8,2.7-4,6.5-7.2,11.3-9.3,4.8-2.1,11.6-3.2,20.1-3.2s15.4,1,20.3,2.9h.4c0,.1-7.7,47.3-7.7,47.3l11.1,1.6-.8.7c-2.6,2.3-5.6,4.6-9,7-5,3.5-8.4,5.9-10.1,7.3-1.5,1.2-3.2,2.7-5.1,4.6h11.4v.3c1.1,2.9,2.4,5.4,3.7,7.5,1.8,2.8,4.2,5.3,7.1,7.5,2.9,2.2,6.5,3.9,10.7,5,.1,0,4.6,1.1,4.6,1.1H2.2Z"/>
    <path d="M41,17.3c8.6,0,15.3,1,20.2,2.9l-7.7,47.3,10.5,1.5c-2.6,2.3-5.5,4.6-9,7-5.1,3.5-8.4,5.9-10.1,7.3-1.7,1.4-3.7,3.2-6,5.5h12.3c1,2.9,2.3,5.5,3.7,7.6,1.8,2.8,4.3,5.4,7.2,7.6,3,2.2,6.6,3.9,10.8,5.1.2,0,.4.1.6.2H2.7c.9-7.4,3.5-14.4,7.9-21,4.4-6.6,12.6-14.3,24.6-23.2,7.4-5.5,12.1-9.6,14.1-12.5,2.1-2.8,3.1-5.5,3.1-8.1s-1-5.1-3.1-7.1c-2-2-4.6-2.9-7.7-2.9s-5.8,1-7.9,3c-2,2-3.4,5.6-4.1,10.7l-25.1-2c1-7.1,2.8-12.6,5.4-16.5,2.6-4,6.3-7,11.1-9.1,4.8-2.1,11.4-3.2,19.9-3.2M41,16.3c-8.6,0-15.4,1.1-20.3,3.3-4.9,2.2-8.8,5.4-11.6,9.5-2.7,4.1-4.6,9.8-5.6,17v1c-.1,0,.9,0,.9,0l25.1,2h.9c0,0,.1-.9.1-.9.7-4.8,1.9-8.2,3.8-10.1,1.9-1.8,4.2-2.7,7.2-2.7s5.1.9,7,2.6c1.8,1.8,2.7,3.8,2.7,6.3s-1,4.8-2.9,7.5c-2,2.7-6.7,6.9-13.9,12.2-12.1,8.9-20.4,16.8-24.9,23.5-4.4,6.7-7.1,13.9-8,21.4v1.1c-.1,0,1,0,1,0h79l-8-2h-.3c-.1,0-.2-.1-.4-.1-4.1-1.1-7.6-2.7-10.5-4.9-2.9-2.2-5.2-4.6-7-7.4-1.3-2.1-2.5-4.6-3.6-7.4l-.2-.7h-10.5c1.6-1.5,2.9-2.7,4.2-3.7,1.7-1.4,5.1-3.8,10.1-7.3,3.4-2.4,6.5-4.8,9.1-7.1l1.6-1.4-2.1-.3-9.5-1.4,7.6-46.3v-.8c.1,0-.6-.3-.6-.3-5-1.9-11.9-2.9-20.5-2.9h0Z"/>
  </g>
  <g>
    <path class="st0" d="M77.6,90.3c-.3-.4-.6-.9-.8-1.4l-.4-.7h2.1v3.5l-.9-1.4Z"/>
    <path d="M78,88.7v1.3c-.3-.4-.5-.9-.8-1.3h.8M79,87.7h-3.4l.7,1.4c.2.5.5,1,.8,1.4l1.8,2.8v-5.7h0Z"/>
  </g>
  <g>
    <path class="st1" d="M50.7,89.2v-.3c-.5-1-.8-2-1.1-3l-.2-.6,26.5-2.9v.5c.4,2.1,1,4,1.8,5.6l.4.7h-27.3Z"/>
    <path d="M75.5,83c.3,2.2.9,4.1,1.7,5.7h-26.2c-.3-.9-.7-1.9-1-3l25.4-2.8M76.4,81.9h-1c0,.1-25.4,2.9-25.4,2.9h-1.2c0,.1.3,1.3.3,1.3.3,1,.6,2,1,3l.2.7h28.5l-.7-1.4c-.8-1.5-1.3-3.4-1.6-5.4v-.9h-.1Z"/>
  </g>
  <g>
    <path class="st1" d="M88.2,111.2c-5.7,0-10.6-.5-14.8-1.6l-4-1h8.1v-20.3l.9,1.4c.5.8,1.1,1.5,1.7,2.1,2.2,2,4.8,3,7.7,3s6.1-1.3,8.3-3.8c2.2-2.5,3.3-6.4,3.3-11.5s-1.1-9.1-3.3-11.5c-2.2-2.4-5.2-3.6-8.8-3.6s-4.6.6-6.8,1.7c-1.6.8-3.4,2.4-5.4,4.6l-.2.2-12.2-1.8.8-.7c3.8-3.3,6.7-6.5,8.5-9.4,3.2-4.9,4.8-10.1,4.8-15.5s-1.4-9.7-4.1-13.7c-2.7-4.1-6.6-7.1-11.4-9.1,0,0-.5-.2-.5-.2h-.4c0-.1.3-2.3.3-2.3h60.5v21h-40.4l-1.9,12.2c2.5-1.1,5.1-2,7.5-2.6,2.8-.7,5.5-1,8.2-1,9.1,0,16.7,2.8,22.4,8.3,5.7,5.5,8.6,12.6,8.6,21s-1.5,11.6-4.4,17.1c-2.9,5.4-7.1,9.7-12.5,12.5-5.4,2.9-12.3,4.3-20.7,4.3Z"/>
    <path d="M121,18.8v20h-40.4l-2.2,13.6c2.8-1.3,5.6-2.3,8.3-3,2.7-.7,5.4-1,8.1-1,9,0,16.4,2.7,22,8.2,5.6,5.5,8.4,12.3,8.4,20.6s-1.4,11.4-4.3,16.8c-2.9,5.4-7,9.5-12.3,12.3-5.3,2.8-12.1,4.3-20.4,4.3s-10.6-.5-14.7-1.5h4.5v-19.1c.5.8,1.1,1.6,1.8,2.2,2.3,2.1,5,3.2,8.1,3.2s6.4-1.3,8.7-4c2.3-2.7,3.4-6.6,3.4-11.9s-1.2-9.3-3.5-11.8c-2.3-2.5-5.4-3.8-9.2-3.8s-4.8.6-7,1.8c-1.7.9-3.5,2.4-5.5,4.7l-10.9-1.6c3.8-3.4,6.7-6.5,8.6-9.5,3.2-5,4.8-10.3,4.8-15.8s-1.4-9.9-4.2-14c-2.8-4.2-6.7-7.3-11.6-9.3-.1,0-.3-.1-.5-.2l.2-1.3h59.6M122,17.8h-61.5v.8c-.1,0-.4,1.3-.4,1.3v.8c-.1,0,.6.3.6.3,0,0,.2,0,.2,0,0,0,.1,0,.2,0,4.7,1.9,8.4,4.9,11.1,8.9,2.7,4,4.1,8.5,4.1,13.5s-1.6,10.4-4.7,15.2c-1.9,2.9-4.7,6-8.5,9.3l-1.6,1.4,2.1.3,10.9,1.6h.5c0,0,.4-.3.4-.3,1.9-2.2,3.7-3.7,5.3-4.5,2.1-1.1,4.3-1.7,6.6-1.7,3.6,0,6.3,1.1,8.4,3.4,2.1,2.3,3.2,6.1,3.2,11.2s-1.1,8.8-3.2,11.2c-2.1,2.4-4.7,3.6-7.9,3.6s-5.3-.9-7.4-2.9c-.6-.6-1.2-1.2-1.7-2l-1.8-2.8v21.5h-11.7l8,2c4.2,1,9.2,1.6,14.9,1.6,8.4,0,15.5-1.5,20.9-4.4,5.5-2.9,9.8-7.2,12.7-12.7,3-5.5,4.5-11.3,4.5-17.3,0-8.5-2.9-15.7-8.7-21.4-5.8-5.6-13.4-8.5-22.7-8.5s-5.5.3-8.3,1c-2.2.5-4.5,1.3-6.8,2.3l1.7-10.9h40.5v-22h0Z"/>
  </g>
  <g>
    <path class="st2" d="M73.4,109.7s-.6-.1-.7-.2c-4.3-1.1-8-2.9-11-5.1-3-2.3-5.5-4.9-7.4-7.7-1.4-2.2-2.7-4.8-3.7-7.7l-.2-.7h27.2v.3c.4.4.6.9.9,1.3h0v19.9h-5.1Z"/>
    <path d="M77.3,88.7c.2.5.5.9.8,1.3v19.1h-4.5c-.2,0-.4,0-.6-.2-4.3-1.1-7.9-2.8-10.8-5.1-3-2.2-5.4-4.8-7.2-7.6-1.4-2.1-2.6-4.7-3.7-7.6h26.2M77.9,87.7h-28.2l.5,1.3c1.1,3,2.3,5.7,3.8,7.9,1.9,2.9,4.4,5.6,7.5,7.9,3.1,2.3,6.8,4.1,11.2,5.2.1,0,.3,0,.4.1h.2c0,0,.1,0,.1,0h5.7v-20.4l-.2-.2c-.3-.4-.5-.8-.7-1.2l-.3-.6h0Z"/>
  </g>
  <g>
    <path class="st2" d="M52.8,67.8l7.9-48.4.6.2s.4.1.5.2c5,2,9,5.2,11.8,9.5,2.9,4.2,4.3,9,4.3,14.3s-1.7,11-4.9,16c-1.9,3-4.9,6.3-8.7,9.6l-.2.2-11.3-1.6Z"/>
    <path d="M61.2,20.1c.1,0,.3.1.5.2,4.9,2,8.8,5.1,11.6,9.3,2.8,4.2,4.2,8.8,4.2,14s-1.6,10.8-4.8,15.8c-1.9,3-4.8,6.2-8.6,9.5l-10.5-1.5,7.7-47.3M60.4,18.8l-.2,1.2-7.7,47.3-.2,1h1c0,.1,10.5,1.7,10.5,1.7h.5c0,0,.3-.2.3-.2,3.9-3.4,6.8-6.7,8.8-9.7,3.3-5.2,5-10.6,5-16.3s-1.5-10.3-4.4-14.6c-2.9-4.3-7-7.6-12-9.6,0,0-.2,0-.3-.1,0,0-.1,0-.2,0l-1.1-.4h0Z"/>
  </g>
</svg>